<svg width="36" height="36" viewBox="0 0 36 36" fill="none" xmlns="http://www.w3.org/2000/svg">
<path fill-rule="evenodd" clip-rule="evenodd" d="M16.1665 11.8125C16.1665 10.9841 16.9052 10.3125 17.8165 10.3125H31.0165C31.9278 10.3125 32.6665 10.9841 32.6665 11.8125C32.6665 12.6409 31.9278 13.3125 31.0165 13.3125H17.8165C16.9052 13.3125 16.1665 12.6409 16.1665 11.8125Z" fill="#697B7A"/>
<path fill-rule="evenodd" clip-rule="evenodd" d="M19.5 25.6875C19.5 26.5159 18.7613 27.1875 17.85 27.1875L4.65 27.1875C3.73873 27.1875 3 26.5159 3 25.6875C3 24.8591 3.73873 24.1875 4.65 24.1875L17.85 24.1875C18.7613 24.1875 19.5 24.8591 19.5 25.6875Z" fill="#697B7A"/>
<path fill-rule="evenodd" clip-rule="evenodd" d="M9 13.125C9.62132 13.125 10.125 12.6213 10.125 12C10.125 11.3787 9.62132 10.875 9 10.875C8.37868 10.875 7.875 11.3787 7.875 12C7.875 12.6213 8.37868 13.125 9 13.125ZM9 16.5C11.4853 16.5 13.5 14.4853 13.5 12C13.5 9.51472 11.4853 7.5 9 7.5C6.51472 7.5 4.5 9.51472 4.5 12C4.5 14.4853 6.51472 16.5 9 16.5Z" fill="#697B7A"/>
<path fill-rule="evenodd" clip-rule="evenodd" d="M26.6665 24.375C26.0452 24.375 25.5415 24.8787 25.5415 25.5C25.5415 26.1213 26.0452 26.625 26.6665 26.625C27.2878 26.625 27.7915 26.1213 27.7915 25.5C27.7915 24.8787 27.2878 24.375 26.6665 24.375ZM26.6665 21C24.1812 21 22.1665 23.0147 22.1665 25.5C22.1665 27.9853 24.1812 30 26.6665 30C29.1518 30 31.1665 27.9853 31.1665 25.5C31.1665 23.0147 29.1518 21 26.6665 21Z" fill="#697B7A"/>
</svg>
